<?xml version="1.0" encoding="UTF-8"?>
<svg version="1.1" xmlns="http://www.w3.org/2000/svg" width="225" height="225">
<path d="M0 0 C74.25 0 148.5 0 225 0 C225 74.25 225 148.5 225 225 C150.75 225 76.5 225 0 225 C0 150.75 0 76.5 0 0 Z " fill="#FEFEFE" transform="translate(0,0)"/>
<path d="M0 0 C1.859375 0.1015625 1.859375 0.1015625 4 1 C5.703125 3.3984375 5.703125 3.3984375 7.25 6.375 C7.77078125 7.35210937 8.2915625 8.32921875 8.828125 9.3359375 C10 12 10 12 10 15 C11.35544922 15.07347656 11.35544922 15.07347656 12.73828125 15.1484375 C13.91777344 15.22320312 15.09726563 15.29796875 16.3125 15.375 C17.48425781 15.44460937 18.65601563 15.51421875 19.86328125 15.5859375 C23 16 23 16 26 18 C25.5199743 22.40404532 24.27279275 24.03970705 20.9375 26.875 C17.59348107 29.99956977 17.59348107 29.99956977 16.4375 34.375 C16.623125 35.57125 16.80875 36.7675 17 38 C17.19718214 39.79062696 17.3842574 41.5823887 17.5625 43.375 C17.71912109 44.65503906 17.71912109 44.65503906 17.87890625 45.9609375 C17.93884766 46.97027344 17.93884766 46.97027344 18 48 C17.67 48.33 17.34 48.66 17 49 C12.85632145 48.75137929 9.84869773 48.07653211 6.375 45.875 C3.27924469 43.79764878 3.27924469 43.79764878 0.5 44 C-2.29592415 45.11836966 -4.71570808 46.58986993 -7.2890625 48.140625 C-9.61389936 49.30835128 -11.44893637 49.37515642 -14 49 C-14.33 48.67 -14.66 48.34 -15 48 C-14.76339062 46.107125 -14.52483899 44.21446806 -14.27539062 42.32324219 C-13.25160669 34.82303066 -13.25160669 34.82303066 -15.96875 28.046875 C-18.43580676 25.72608027 -18.43580676 25.72608027 -21.09375 23.859375 C-21.7228125 23.24578125 -22.351875 22.6321875 -23 22 C-22.78125 19.265625 -22.78125 19.265625 -22 17 C-18.33953732 15.8794502 -15.34928077 15.0159649 -11.49609375 14.83984375 C-7.77083515 14.33798279 -7.77083515 14.33798279 -5.8203125 11.09375 C-5.26085937 9.9078125 -4.70140625 8.721875 -4.125 7.5 C-3.55007812 6.3140625 -2.97515625 5.128125 -2.3828125 3.90625 C-1.92648438 2.9471875 -1.47015625 1.988125 -1 1 C-0.67 0.67 -0.34 0.34 0 0 Z " fill="#F7B32E" transform="translate(111,28)"/>
<path d="M0 0 C2.5 0.125 2.5 0.125 3.5 1.125 C3.60008034 2.62586237 3.63075376 4.13141233 3.63371277 5.63560486 C3.63797775 6.61013107 3.64224274 7.58465729 3.64663696 8.5887146 C3.64595718 10.20563705 3.64595718 10.20563705 3.64526367 11.85522461 C3.64862228 12.98357224 3.6519809 14.11191986 3.65544128 15.27445984 C3.66498429 19.02543217 3.66689605 22.77636002 3.66796875 26.52734375 C3.67117892 29.12187214 3.67454281 31.71640035 3.67805481 34.31092834 C3.68405442 39.75766496 3.68593651 45.20438378 3.68530273 50.65112305 C3.68470178 56.95351294 3.69525534 63.25581728 3.7110464 69.55818552 C3.72567749 75.6124896 3.72929136 81.6667471 3.72869301 87.72107124 C3.72987726 90.30117708 3.73432373 92.88128348 3.74202538 95.4613781 C3.75176894 99.06278557 3.74896958 102.66397017 3.74291992 106.26538086 C3.74853943 107.34130493 3.75415894 108.417229 3.75994873 109.52575684 C3.753657 110.99177589 3.753657 110.99177589 3.74723816 112.4874115 C3.74778293 113.33969298 3.74832769 114.19197447 3.74888897 115.07008266 C3.5 117.125 3.5 117.125 1.5 119.125 C-2.03571429 118.58928571 -2.03571429 118.58928571 -3.5 117.125 C-3.59791695 115.62181296 -3.62631799 114.11403867 -3.62698364 112.60766602 C-3.63121338 111.14370895 -3.63121338 111.14370895 -3.63552856 109.650177 C-3.63350433 108.57065765 -3.6314801 107.49113831 -3.62939453 106.37890625 C-3.63114685 105.24895233 -3.63289917 104.11899841 -3.63470459 102.95480347 C-3.63912582 99.19902027 -3.63618416 95.44328372 -3.6328125 91.6875 C-3.63348546 89.09057608 -3.63445542 86.49365222 -3.63571167 83.89672852 C-3.63718901 78.44579411 -3.63512751 72.99487742 -3.63037109 67.54394531 C-3.6249285 61.23360771 -3.62669117 54.92330241 -3.6321975 48.61296558 C-3.63727431 42.553323 -3.63674709 36.49369628 -3.63381577 30.43405151 C-3.63314623 27.85033158 -3.63397585 25.26661083 -3.63629532 22.68289185 C-3.63882025 19.07893657 -3.6349835 15.4750443 -3.62939453 11.87109375 C-3.63141876 10.7915744 -3.63344299 9.71205505 -3.63552856 8.599823 C-3.63270874 7.62385162 -3.62988892 6.64788025 -3.62698364 5.64233398 C-3.62660662 4.78913071 -3.62622959 3.93592743 -3.62584114 3.05686951 C-3.43267395 0.09143378 -2.98214247 0.14910712 0 0 Z " fill="#FBD06D" transform="translate(112.5,84.875)"/>
<path d="M0 0 C2.390625 0.25390625 2.390625 0.25390625 5 1 C6.046875 2.77734375 6.046875 2.77734375 6.75 4.9375 C7.93724509 7.69624377 8.40739438 8.74916164 11.21484375 9.9375 C12.82433117 10.26295717 14.44571125 10.53553386 16.07421875 10.74609375 C18 11 18 11 19 12 C19.375 14.25 19.375 14.25 19 17 C18.175 17.680625 17.35 18.36125 16.5 19.0625 C13.02244484 23.14862731 13.64315582 26.25881309 13.921875 31.453125 C13.94765625 32.29359375 13.9734375 33.1340625 14 34 C13.67 34.33 13.34 34.66 13 35 C9.4852202 34.6620404 6.57785533 34.27516921 3.375 32.75 C2.59125 32.5025 1.8075 32.255 1 32 C-1.53673288 33.3553326 -1.53673288 33.3553326 -4 35 C-6.75 35.25 -6.75 35.25 -9 35 C-9.33 34.67 -9.66 34.34 -10 34 C-9.91445384 32.10323523 -9.80637254 30.20746808 -9.6875 28.3125 C-9.53610028 23.88179917 -9.53610028 23.88179917 -11.3671875 20.01171875 C-12.89185222 18.65216749 -14.4443366 17.32396885 -16 16 C-15.7890625 13.91796875 -15.7890625 13.91796875 -15 12 C-12.5610852 10.28372663 -11.06620483 10.00140861 -8.0625 9.9375 C-4.2925472 8.78343282 -3.9792901 7.79938573 -2.125 4.4375 C-1.3961477 2.96833545 -0.68114255 1.49188303 0 0 Z " fill="#FF84AA" transform="translate(202,144)"/>
<path d="M0 0 C1.98046875 0.80859375 1.98046875 0.80859375 2.9296875 2.5859375 C3.29513672 3.65521484 3.29513672 3.65521484 3.66796875 4.74609375 C4.88487752 7.49395227 5.39132611 8.55966024 8.19921875 9.74609375 C9.80734721 10.07179065 11.42745381 10.34429231 13.0546875 10.5546875 C14.98046875 10.80859375 14.98046875 10.80859375 15.98046875 11.80859375 C16.35546875 14.05859375 16.35546875 14.05859375 15.98046875 16.80859375 C15.15546875 17.48921875 14.33046875 18.16984375 13.48046875 18.87109375 C10.00291359 22.95722106 10.62362457 26.06740684 10.90234375 31.26171875 C10.928125 32.1021875 10.95390625 32.94265625 10.98046875 33.80859375 C9.98046875 34.80859375 9.98046875 34.80859375 7.73046875 35.05859375 C4.98046875 34.80859375 4.98046875 34.80859375 2.48046875 33.18359375 C1.65546875 32.72984375 0.83046875 32.27609375 -0.01953125 31.80859375 C-2.48183122 32.52604731 -2.48183122 32.52604731 -5.01953125 33.80859375 C-8.76953125 34.49609375 -8.76953125 34.49609375 -12.01953125 34.80859375 C-12.34953125 34.47859375 -12.67953125 34.14859375 -13.01953125 33.80859375 C-12.96070992 31.8910183 -12.87232606 29.97431523 -12.76953125 28.05859375 C-12.61659772 22.97773863 -12.61659772 22.97773863 -15.51953125 18.87109375 C-16.34453125 18.19046875 -17.16953125 17.50984375 -18.01953125 16.80859375 C-18.33203125 13.99609375 -18.33203125 13.99609375 -18.01953125 11.80859375 C-12.26120932 9.84552945 -12.26120932 9.84552945 -9.94921875 9.4921875 C-7.86628546 8.97259766 -7.86628546 8.97259766 -6.82421875 6.99609375 C-6.51742188 6.27421875 -6.210625 5.55234375 -5.89453125 4.80859375 C-3.66636679 -0.34748931 -3.66636679 -0.34748931 0 0 Z " fill="#8095D1" transform="translate(22.01953125,144.19140625)"/>
<path d="M0 0 C1.82421875 0.015625 1.82421875 0.015625 4 1 C5.4940674 3.25496358 6.65847619 5.32594093 7.8125 7.75 C8.15434326 8.45302246 8.49618652 9.15604492 8.84838867 9.88037109 C15.09609532 23.18324244 19.55144685 37.51560106 22 52 C22.20367187 53.1034375 22.40734375 54.206875 22.6171875 55.34375 C24.5279167 67.17456643 24.1929907 79.05090655 24 91 C21.625 91.625 21.625 91.625 19 92 C16.47519006 89.47519006 16.72843615 88.54541393 16.65625 85.046875 C16.62813232 84.04213135 16.60001465 83.0373877 16.57104492 82.00219727 C16.53587769 80.39235962 16.53587769 80.39235962 16.5 78.75 C16.20419841 69.67897387 15.73899231 60.92543039 14 52 C13.87786133 51.36642578 13.75572266 50.73285156 13.62988281 50.08007812 C10.75290964 35.57678963 6.3024087 20.79970474 -1.25 8.0078125 C-2.24460962 5.34515967 -1.80089049 3.68480335 -1 1 C-0.67 0.67 -0.34 0.34 0 0 Z " fill="#B8CF66" transform="translate(67,119)"/>
<path d="M0 0 C2.0625 0.4375 2.0625 0.4375 4 1 C5.18728948 4.40679585 4.86043507 6.04852483 3.33984375 9.28125 C2.77160889 10.52878052 2.77160889 10.52878052 2.19189453 11.80151367 C1.77794434 12.69201416 1.36399414 13.58251465 0.9375 14.5 C-8.80202331 36.37696352 -13.21337475 57.60253549 -13.62231445 81.49462891 C-13.64511475 82.56890137 -13.66791504 83.64317383 -13.69140625 84.75 C-13.70373291 85.71421875 -13.71605957 86.6784375 -13.72875977 87.671875 C-14 90 -14 90 -16 92 C-18.625 91.625 -18.625 91.625 -21 91 C-21.51850503 70.63471798 -20.38413158 51.47389776 -14 32 C-13.46246094 30.205625 -13.46246094 30.205625 -12.9140625 28.375 C-5.95430514 5.95430514 -5.95430514 5.95430514 0 0 Z " fill="#F6A056" transform="translate(155,119)"/>
<path d="M0 0 C4.38299083 2.19149542 7.20074724 4.40190962 9 9 C9.5375217 13.52414101 9.50314051 17.55347103 8 21.875 C4.16586465 25.94876881 -0.12859882 27.7418757 -5.625 28.5 C-10.55971941 27.76893046 -13.54945708 25.65061781 -16.8125 21.9375 C-19.23959201 17.97750777 -19.38595477 14.55426632 -19 10 C-14.90298008 1.96353784 -8.85099902 -1.57033854 0 0 Z " fill="#6CBE84" transform="translate(61,88)"/>
<path d="M0 0 C4.81899576 2.36403566 7.56479358 5.22324894 10 10 C10.65293024 15.22344192 9.845108 18.58517724 7 23 C3.32297423 26.40124883 0.71377437 27.83832317 -4.3125 28.3125 C-9.38517063 27.88261266 -12.04686239 25.68373932 -15.8125 22.4375 C-18.50614482 19.17677206 -18.33351862 15.30330625 -18.28125 11.28515625 C-17.71813252 6.70982676 -15.19489606 4.02419662 -11.8125 1.125 C-7.79598559 -0.48160576 -4.26599881 -0.67080193 0 0 Z " fill="#F8947F" transform="translate(173,88)"/>
<path d="M0 0 C0.8971875 0.309375 0.8971875 0.309375 1.8125 0.625 C2.1425 1.945 2.4725 3.265 2.8125 4.625 C1.8946875 5.40101563 0.976875 6.17703125 0.03125 6.9765625 C-10.97837165 16.56123312 -19.71294627 26.84248102 -21.6015625 41.93359375 C-21.67117187 42.96613281 -21.74078125 43.99867188 -21.8125 45.0625 C-21.92464844 46.63837891 -21.92464844 46.63837891 -22.0390625 48.24609375 C-22.08804688 49.03113281 -22.13703125 49.81617188 -22.1875 50.625 C-24.4975 50.625 -26.8075 50.625 -29.1875 50.625 C-30.35943128 34.94716371 -25.08438871 22.56360906 -15.1875 10.625 C-4.04621988 -0.69363769 -4.04621988 -0.69363769 0 0 Z " fill="#E74A61" transform="translate(184.1875,167.375)"/>
<path d="M0 0 C7.19978901 0.47232658 12.43448455 6.88685887 17 12 C26.5333346 24.15845572 30.24674209 35.59232726 30 51 C27.69 51 25.38 51 23 51 C22.93683594 50.00742188 22.87367187 49.01484375 22.80859375 47.9921875 C21.39280759 30.81114345 13.96778953 18.69424141 0.9375 7.375 C-0.031875 6.59125 -1.00125 5.8075 -2 5 C-1.125 1.125 -1.125 1.125 0 0 Z " fill="#E74A60" transform="translate(40,167)"/>
<path d="M0 0 C0.5878125 1.11375 0.5878125 1.11375 1.1875 2.25 C3.01665108 5.0252637 3.6828156 5.53187326 6.5 6.9375 C10.22915518 8.86909201 11.52840498 11.01803701 13 15 C13 15.66 13 16.32 13 17 C10.69 17.66 8.38 18.32 6 19 C5.79375 18.236875 5.5875 17.47375 5.375 16.6875 C3.56343344 13.14671081 1.53055764 12.69466767 -2 11 C-4.4375 8.625 -4.4375 8.625 -6 6 C-5.75 3.1875 -5.75 3.1875 -5 1 C-2 0 -2 0 0 0 Z " fill="#E74C62" transform="translate(81,7)"/>
<path d="M0 0 C1.32 0.66 2.64 1.32 4 2 C4 5.76701478 3.54071679 8.83242 2.75 12.5 C2.51796875 13.6240625 2.2859375 14.748125 2.046875 15.90625 C0.9154092 19.24998475 -0.33060339 20.74976484 -3 23 C-4.9375 22.25 -4.9375 22.25 -7 21 C-7.875 19 -7.875 19 -8 17 C-7.34 16.34 -6.68 15.68 -6 15 C-5.72592615 12.99444499 -5.72592615 12.99444499 -5.6875 10.75 C-5.26253685 5.69130403 -3.54006464 3.54006464 0 0 Z " fill="#55BEF2" transform="translate(189,65)"/>
<path d="M0 0 C0.61875 1.11375 0.61875 1.11375 1.25 2.25 C3.22794524 5.35819966 5.13548632 6.17687672 8.34765625 7.8203125 C11.26916846 9.90612027 11.90976356 12.66515913 13 16 C10 18 10 18 6 18 C5.79375 17.401875 5.5875 16.80375 5.375 16.1875 C4.10006581 13.73901756 4.10006581 13.73901756 1.125 12.5625 C-2.36516665 10.81741667 -3.86988108 9.23462503 -6 6 C-6.75 3.6875 -6.75 3.6875 -7 2 C-4.35261084 0.5393715 -3.10551666 0 0 0 Z " fill="#E74A61" transform="translate(34,67)"/>
<path d="M0 0 C2.08277955 0.17954996 4.12268871 0.51927966 6.1875 0.84375 C6.785625 0.8953125 7.38375 0.946875 8 1 C8.33 0.67 8.66 0.34 9 0 C13.54950416 -0.26247139 16.88439805 0.00455663 21 2 C20.34 3.98 19.68 5.96 19 8 C17.865625 7.979375 16.73125 7.95875 15.5625 7.9375 C11.65650075 7.9166865 7.93006562 8.35304693 4.078125 8.9765625 C1.56093176 9.0049519 0.14409278 8.2652079 -2 7 C-1.125 1.125 -1.125 1.125 0 0 Z " fill="#E74A61" transform="translate(170,33)"/>
<path d="M0 0 C1.32 1.32 2.64 2.64 4 4 C3.70738281 4.56847656 3.41476563 5.13695312 3.11328125 5.72265625 C2.03410769 7.93022882 1.11404104 10.16254605 0.1875 12.4375 C-1.63500434 16.57397052 -3.50079243 19.1453833 -7 22 C-7.66 22 -8.32 22 -9 22 C-12 18.53846154 -12 18.53846154 -12 16 C-11.38125 15.443125 -10.7625 14.88625 -10.125 14.3125 C-7.7291082 12.07194901 -7.7291082 12.07194901 -7.125 8.5625 C-5.66626762 3.9431808 -3.86676715 2.77398513 0 0 Z " fill="#53BDF2" transform="translate(145,5)"/>
<path d="M0 0 C2.93774463 -0.05390357 5.87450232 -0.0936255 8.8125 -0.125 C10.06256836 -0.15013672 10.06256836 -0.15013672 11.33789062 -0.17578125 C12.14033203 -0.18222656 12.94277344 -0.18867188 13.76953125 -0.1953125 C14.50792236 -0.20578613 15.24631348 -0.21625977 16.00708008 -0.22705078 C18 0 18 0 21 2 C20.34 3.98 19.68 5.96 19 8 C17.88625 7.814375 16.7725 7.62875 15.625 7.4375 C12.17431139 6.68319343 12.17431139 6.68319343 10 8 C1.60902256 8.40601504 1.60902256 8.40601504 -2 6 C-1.34 4.02 -0.68 2.04 0 0 Z " fill="#53BDF2" transform="translate(36,30)"/>
<path d="M0 0 C1.67542976 0.28604898 3.34385343 0.61781233 5 1 C5.625 2.875 5.625 2.875 6 5 C5.34 5.66 4.68 6.32 4 7 C1.375 6.625 1.375 6.625 -1 6 C-1.042721 4.33388095 -1.04063832 2.66617115 -1 1 C-0.67 0.67 -0.34 0.34 0 0 Z " fill="#FDC7B9" transform="translate(156,60)"/>
<path d="M0 0 C2.125 0.375 2.125 0.375 4 1 C5.125 4.75 5.125 4.75 4 7 C2.35 7 0.7 7 -1 7 C-1.625 4.625 -1.625 4.625 -2 2 C-1.34 1.34 -0.68 0.68 0 0 Z " fill="#FEDC72" transform="translate(199,56)"/>
<path d="M0 0 C2.125 0.375 2.125 0.375 4 1 C4.38218767 2.65614657 4.71395102 4.32457024 5 6 C4 7 4 7 1.4375 7.0625 C0.2309375 7.0315625 0.2309375 7.0315625 -1 7 C-1.625 4.625 -1.625 4.625 -2 2 C-1.34 1.34 -0.68 0.68 0 0 Z " fill="#FEDC72" transform="translate(23,56)"/>
<path d="M0 0 C1.2065625 0.0309375 1.2065625 0.0309375 2.4375 0.0625 C3.0625 2.4375 3.0625 2.4375 3.4375 5.0625 C2.7775 5.7225 2.1175 6.3825 1.4375 7.0625 C-0.6875 6.6875 -0.6875 6.6875 -2.5625 6.0625 C-2.94468767 4.40635343 -3.27645102 2.73792976 -3.5625 1.0625 C-2.5625 0.0625 -2.5625 0.0625 0 0 Z " fill="#FEDC73" transform="translate(70.5625,52.9375)"/>
<path d="M0 0 C2.0625 0.4375 2.0625 0.4375 4 1 C4.625 2.875 4.625 2.875 5 5 C4.34 5.66 3.68 6.32 3 7 C0.375 6.625 0.375 6.625 -2 6 C-1.125 1.125 -1.125 1.125 0 0 Z " fill="#FDC6B8" transform="translate(199,14)"/>
<path d="M0 0 C1.65 0 3.3 0 5 0 C5.6875 1.8125 5.6875 1.8125 6 4 C4.5625 5.75 4.5625 5.75 3 7 C1.68 6.34 0.36 5.68 -1 5 C-0.67 3.35 -0.34 1.7 0 0 Z " fill="#FDC6B9" transform="translate(19,120)"/>
<path d="M0 0 C1.67542976 0.28604898 3.34385343 0.61781233 5 1 C5 2.65 5 4.3 5 6 C3.34385343 6.38218767 1.67542976 6.71395102 0 7 C-1 6 -1 6 -1.125 3.5 C-1 1 -1 1 0 0 Z " fill="#FDC6B8" transform="translate(19,14)"/>
<path d="M0 0 C0 1.65 0 3.3 0 5 C-1.65614657 5.38218767 -3.32457024 5.71395102 -5 6 C-6 5 -6 5 -6.0625 2.4375 C-6.041875 1.633125 -6.02125 0.82875 -6 0 C-3.50907189 -1.24546405 -2.58919267 -0.7767578 0 0 Z " fill="#FDC5B7" transform="translate(207,117)"/>
<path d="M0 0 C2.125 0.375 2.125 0.375 4 1 C4.625 2.875 4.625 2.875 5 5 C4.34 5.66 3.68 6.32 3 7 C0.875 6.625 0.875 6.625 -1 6 C-1.625 4.125 -1.625 4.125 -2 2 C-1.34 1.34 -0.68 0.68 0 0 Z " fill="#FEDA69" transform="translate(111,7)"/>
</svg>
