<svg width="50" height="50" viewBox="0 0 50 50" fill="none" xmlns="http://www.w3.org/2000/svg">
<path d="M19.7917 32.6041H30.2083V29.4791H24.375L30.2083 22.9166V20.1041H19.7917V23.2291H25.7292L19.7917 29.8958V32.6041ZM25 45.8333C22.3958 45.8333 19.9566 45.3385 17.6823 44.3489C15.408 43.3593 13.4288 42.0225 11.7448 40.3385C10.0608 38.6544 8.72396 36.6753 7.73438 34.401C6.74479 32.1267 6.25 29.6874 6.25 27.0833C6.25 24.4791 6.74479 22.0399 7.73438 19.7655C8.72396 17.4912 10.0608 15.5121 11.7448 13.828C13.4288 12.144 15.408 10.8072 17.6823 9.81763C19.9566 8.82804 22.3958 8.33325 25 8.33325C27.6042 8.33325 30.0434 8.82804 32.3177 9.81763C34.592 10.8072 36.5712 12.144 38.2552 13.828C39.9392 15.5121 41.276 17.4912 42.2656 19.7655C43.2552 22.0399 43.75 24.4791 43.75 27.0833C43.75 29.6874 43.2552 32.1267 42.2656 34.401C41.276 36.6753 39.9392 38.6544 38.2552 40.3385C36.5712 42.0225 34.592 43.3593 32.3177 44.3489C30.0434 45.3385 27.6042 45.8333 25 45.8333ZM11.6667 4.89575L14.5833 7.81242L5.72917 16.6666L2.8125 13.7499L11.6667 4.89575ZM38.3333 4.89575L47.1875 13.7499L44.2708 16.6666L35.4167 7.81242L38.3333 4.89575Z" fill="#FEF7FF"/>
</svg>
