<svg width="46" height="46" viewBox="0 0 46 46" fill="none" xmlns="http://www.w3.org/2000/svg">
<path d="M23 29.25C24.7361 29.25 26.2118 28.6424 27.4271 27.4271C28.6424 26.2118 29.25 24.7362 29.25 23C29.25 21.2639 28.6424 19.7882 27.4271 18.573C26.2118 17.3577 24.7361 16.75 23 16.75C21.2639 16.75 19.7882 17.3577 18.5729 18.573C17.3577 19.7882 16.75 21.2639 16.75 23C16.75 24.7362 17.3577 26.2118 18.5729 27.4271C19.7882 28.6424 21.2639 29.25 23 29.25ZM23 33.4167C20.1181 33.4167 17.6615 32.4011 15.6302 30.3698C13.599 28.3386 12.5833 25.882 12.5833 23C12.5833 20.1181 13.599 17.6615 15.6302 15.6302C17.6615 13.599 20.1181 12.5834 23 12.5834C25.882 12.5834 28.3386 13.599 30.3698 15.6302C32.4011 17.6615 33.4167 20.1181 33.4167 23C33.4167 25.882 32.4011 28.3386 30.3698 30.3698C28.3386 32.4011 25.882 33.4167 23 33.4167ZM8.41668 25.0834H0.0833435V20.9167H8.41668V25.0834ZM45.9167 25.0834H37.5833V20.9167H45.9167V25.0834ZM20.9167 8.41671V0.083374H25.0833V8.41671H20.9167ZM20.9167 45.9167V37.5834H25.0833V45.9167H20.9167ZM11.3333 14.1459L6.07293 9.09379L9.04168 6.02087L14.0417 11.2292L11.3333 14.1459ZM36.9583 39.9792L31.9063 34.7188L34.6667 31.8542L39.9271 36.9063L36.9583 39.9792ZM31.8542 11.3334L36.9063 6.07296L39.9792 9.04171L34.7708 14.0417L31.8542 11.3334ZM6.02084 36.9584L11.2813 31.9063L14.1458 34.6667L9.09376 39.9271L6.02084 36.9584Z" fill="#F9F9F9"/>
</svg>
