<svg width="50" height="50" viewBox="0 0 50 50" fill="none" xmlns="http://www.w3.org/2000/svg">
<path d="M18.75 34.3751C17.2917 34.3751 16.059 33.8716 15.0521 32.8647C14.0451 31.8577 13.5417 30.6251 13.5417 29.1667C13.5417 27.7084 14.0451 26.4758 15.0521 25.4688C16.059 24.4619 17.2917 23.9584 18.75 23.9584C20.2083 23.9584 21.441 24.4619 22.4479 25.4688C23.4549 26.4758 23.9583 27.7084 23.9583 29.1667C23.9583 30.6251 23.4549 31.8577 22.4479 32.8647C21.441 33.8716 20.2083 34.3751 18.75 34.3751ZM10.4167 45.8334C9.27083 45.8334 8.28993 45.4254 7.47396 44.6095C6.65799 43.7935 6.25 42.8126 6.25 41.6667V12.5001C6.25 11.3542 6.65799 10.3733 7.47396 9.55737C8.28993 8.7414 9.27083 8.33341 10.4167 8.33341H12.5V4.16675H16.6667V8.33341H33.3333V4.16675H37.5V8.33341H39.5833C40.7292 8.33341 41.7101 8.7414 42.526 9.55737C43.342 10.3733 43.75 11.3542 43.75 12.5001V41.6667C43.75 42.8126 43.342 43.7935 42.526 44.6095C41.7101 45.4254 40.7292 45.8334 39.5833 45.8334H10.4167ZM10.4167 41.6667H39.5833V20.8334H10.4167V41.6667Z" fill="#FEF7FF"/>
</svg>
